<?xml version="1.0" encoding="utf-8"?>
<!-- Generator: Adobe Illustrator 22.0.0, SVG Export Plug-In . SVG Version: 6.00 Build 0)  -->
<svg version="1.1" id="图层_1" xmlns="http://www.w3.org/2000/svg" xmlns:xlink="http://www.w3.org/1999/xlink" x="0px" y="0px"
	 viewBox="0 0 1024 1024" style="enable-background:new 0 0 1024 1024;" xml:space="preserve">
<g>
	<path d="M510.8,1024c-292-1.5-516.6-240.9-510.9-522.4C5.4,227.6,227.9-0.7,513.2,0c292,0.7,516.6,240.7,510.9,522.3
		C1018.6,796.2,796.1,1023.9,510.8,1024z M548.6,421.7c0-50.3-0.2-100.7,0.1-151c0.1-10.4-3.8-15-14.2-14.9c-15,0.2-30,0.2-45.1,0
		c-10.3-0.1-14.2,4.4-14.2,14.8c0.2,99.9,0.3,199.7,0,299.6c0,11.4,4.9,15.1,15.4,14.9c13.8-0.3,27.6,0,41.4-0.1
		c14.5-0.1,16.5-2.2,16.5-17.2C548.6,519.1,548.6,470.4,548.6,421.7z M458.3,712.4c-0.2,29.7,24,55,53.1,55.4
		c28.9,0.5,54.2-24.7,54.4-54.1c0.2-29.7-24-55-53.1-55.4C483.8,657.9,458.5,683.1,458.3,712.4z"/>
</g>
</svg>
