<svg xmlns="http://www.w3.org/2000/svg" viewBox="0 0 1024 1024">
    <path d="M1006.9 511.7c0 145.1.1 290.3-.1 435.4-.1 48.2-8.8 57.4-55.6 57.5-292.8.2-585.7.2-878.5 0-46.8 0-55.6-9.3-55.6-57.5-.1-291.5-.1-583.1 0-874.6 0-48.2 8.8-57.4 55.6-57.5 292.8-.2 585.7-.2 878.5 0 46.8 0 55.5 9.3 55.6 57.5.3 146.4.1 292.8.1 439.2zm-89.8-406.3H108.3v808.8h808.8V105.4z"/>
    <path d="M567.9 602.8V632H404.1c-.2-7.3 1-14.4 3.6-21.1 4.2-11.2 10.8-22.1 20-33 9.2-10.8 22.4-23.3 39.8-37.5 26.9-22.1 45.1-39.6 54.6-52.5 9.5-12.9 14.2-25.1 14.2-36.6 0-12.1-4.3-22.2-12.9-30.5-8.6-8.3-19.9-12.4-33.7-12.4-14.6 0-26.4 4.4-35.2 13.2-8.8 8.8-13.2 21-13.3 36.5l-31.3-3.2c2.1-23.3 10.2-41.1 24.2-53.3 14-12.2 32.7-18.3 56.3-18.3 23.8 0 42.6 6.6 56.5 19.8 13.9 13.2 20.8 29.5 20.8 49 0 9.9-2 19.7-6.1 29.2-4.1 9.6-10.8 19.7-20.2 30.3-9.4 10.6-25 25.1-46.9 43.6-18.3 15.3-30 25.7-35.2 31.2-5.2 5.5-9.5 11-12.8 16.5h121.4zM295 634.2h-30.4V440.3c-7.3 7-16.9 14-28.8 21-11.9 7-22.6 12.2-32 15.7v-29.4c17-8 31.9-17.7 44.6-29.1 12.7-11.4 21.7-22.4 27-33.1H295v248.8zm363-65.4l30.4-4.1c3.5 17.2 9.4 29.7 17.8 37.3 8.4 7.6 18.6 11.4 30.7 11.4 14.3 0 26.4-5 36.3-14.9 9.9-9.9 14.8-22.2 14.8-36.8 0-14-4.6-25.5-13.7-34.6-9.1-9.1-20.7-13.6-34.8-13.6-5.7 0-12.9 1.1-21.5 3.4l3.4-26.7c2 .2 3.7.3 4.9.3 13 0 24.6-3.4 35-10.1 10.4-6.8 15.5-17.2 15.5-31.3 0-11.2-3.8-20.4-11.3-27.7-7.6-7.3-17.3-11-29.2-11-11.8 0-21.7 3.7-29.6 11.2-7.9 7.4-13 18.6-15.2 33.5l-30.4-5.4c3.7-20.4 12.2-36.2 25.4-47.4 13.2-11.2 29.6-16.8 49.2-16.8 13.5 0 26 2.9 37.4 8.7 11.4 5.8 20.1 13.7 26.1 23.7s9 20.7 9 31.9c0 10.7-2.9 20.4-8.6 29.2-5.7 8.8-14.3 15.8-25.5 21 14.6 3.4 26 10.4 34.1 21s12.2 24 12.2 40c0 21.6-7.9 40-23.7 55-15.8 15-35.7 22.6-59.8 22.6-21.7 0-39.8-6.5-54.2-19.4-14.5-13-22.7-29.8-24.7-50.4z"/>
</svg>
